<svg xmlns="http://www.w3.org/2000/svg" xmlns:xlink="http://www.w3.org/1999/xlink" id="Layer_1" width="896" height="1344" x="0" y="0" enable-background="new 0 0 896 1344" version="1.1" viewBox="0 0 896 1344" xml:space="preserve"><g><rect width="896" height="1344" fill="none"/><g><path fill="#444" d="M880,1252c0,33-27,60-60,60H76c-33,0-60-27-60-60V92c0-33,27-60,60-60h744c33,0,60,27,60,60V1252z"/><path fill="#666" d="M820,36c30.879,0,56,25.121,56,56v1160c0,30.879-25.121,56-56,56H76c-30.879,0-56-25.121-56-56V92 c0-30.879,25.121-56,56-56H820 M820,32H76c-33,0-60,27-60,60v1160c0,33,27,60,60,60h744c33,0,60-27,60-60V92C880,59,853,32,820,32 L820,32z"/><path fill="#333" d="M840,1188c0,2.2-1.8,4-4,4H60c-2.2,0-4-1.8-4-4V156c0-2.2,1.8-4,4-4h776c2.2,0,4,1.8,4,4V1188z"/><g><circle cx="448" cy="1252" r="36" fill="#333"/></g><g><circle cx="448" cy="96" r="8" fill="#333"/></g><g><circle cx="448" cy="96" r="4" fill="#222"/></g></g></g><rect width="768" height="20" x="64.5" y="160.5" fill="#222"/><rect width="768" height="76" x="64.5" y="180.5" fill="#DDD"/></svg>